<!--?xml version="1.0" standalone="no"?-->
              <svg id="sw-js-blob-svg" viewBox="0 0 100 100" xmlns="http://www.w3.org/2000/svg" version="1.1">
                    <defs> 
                        <linearGradient id="sw-gradient" x1="0" x2="1" y1="1" y2="0">
                            <stop id="stop1" stop-color="rgba(187, 187, 241, 1)" offset="0%"></stop>
                            <stop id="stop2" stop-color="rgba(255, 255, 255, 1)" offset="100%"></stop>
                        </linearGradient>
                    </defs>
                <path fill="url(#sw-gradient)" d="M21.6,-24.9C29.4,-19.2,38.1,-13.7,40.2,-6.4C42.3,0.9,37.7,10,32.1,17.3C26.4,24.5,19.6,29.9,12.3,31.4C5.1,33,-2.7,30.9,-11.5,28.9C-20.3,26.9,-30.2,25,-35.7,18.9C-41.2,12.9,-42.4,2.6,-39.2,-5.5C-36.1,-13.5,-28.6,-19.3,-21.3,-25.1C-14.1,-30.9,-7,-36.7,-0.1,-36.6C6.9,-36.5,13.8,-30.6,21.6,-24.9Z" width="100%" height="100%" transform="translate(50 50)" stroke-width="0" style="transition: all 0.3s ease 0s;"></path>
              </svg>